<?xml version="1.0" encoding="UTF-8"?>
<svg width="129px" height="117px" viewBox="0 0 129 117" version="1.1" xmlns="http://www.w3.org/2000/svg" xmlns:xlink="http://www.w3.org/1999/xlink">
    <!-- Generator: Sketch 55.2 (78181) - https://sketchapp.com -->
    <title>Data fusion</title>
    <desc>Created with Sketch.</desc>
    <g id="Page-1" stroke="none" stroke-width="1" fill="none" fill-rule="evenodd">
        <g id="Data-fusion">
            <g id="Data-Fusion-03" fill-rule="nonzero">
                <g id="Mask" fill="#4285F4">
                    <path d="M127.335484,52.2765957 L100.902968,6.09893617 C98.8963269,2.49941966 95.120447,0.236192409 90.9907742,0.157659574 L38.1090968,0.157659574 C33.9794239,0.236192409 30.2035441,2.49941966 28.1969032,6.09893617 L1.74774194,52.1853191 C-0.299474478,55.7679715 -0.299474478,60.1616029 1.74774194,63.7442553 L28.1885806,110.21234 C30.1749691,113.861509 33.9399114,116.200126 38.1007742,116.369362 L90.9824516,116.369362 C95.1424127,116.219665 98.9140669,113.891463 100.902968,110.245532 L127.335484,64.0429787 C129.403253,60.3917702 129.403253,55.9278043 127.335484,52.2765957 Z" id="path-1"></path>
                </g>
                <path d="M127.655963,62.7532345 C125,69 121.933741,72.7280736 118.883792,78.0955668 C118.17928,79.3342746 117.474689,80.5729038 116.77002,81.8114545 C111.53605,91.0108517 106.297725,100.205915 101.055046,109.396644 C99.3045624,112.75214 96.1127004,115.130653 92.3845566,115.857722 C92.0953545,115.932628 91.7997068,115.980265 91.5015291,116 L72.6888379,116 C72.5542813,115.347197 72.0244648,114.987318 71.6039755,114.560485 C61.4001019,104.227224 51.2130479,93.913491 41.0428135,83.6192863 C40.5970948,83.1673456 40.0084098,82.7823591 40,82.0291246 C41.603591,82.3980916 43.2503124,82.5473283 44.8944954,82.4726961 L81.603211,82.4726961 C82.2087156,82.4726961 82.8142202,82.4726961 83.4197248,82.4224804 C86.7872893,82.1833321 89.42586,79.4453491 89.5252294,76.0869415 C89.6009174,71.9023054 89.5252294,67.7929928 89.5252294,63.6418339 C89.5252294,63.0141385 89.4159021,62.6877369 88.6842508,62.6877369 C84.7905199,62.6877369 80.896789,62.6877369 77.0030581,62.6877369 C76.3302752,62.6877369 77.138736,64.3304582 77.1555556,65 C77.1555556,66.3139757 77.0882773,66.6943936 77.1555556,68 C77.2312436,69.1298517 75.7331804,68.9144753 74.6987768,68.906106 C68.0298165,68.906106 61.3692661,68.906106 54.7087156,68.906106 C53.279052,68.906106 51.8493884,68.906106 50.4197248,68.906106 C49.6207951,68.906106 49.3853211,68.6215508 49.3853211,67.8348392 C49.3853211,59.973303 49.3853211,52.1145565 49.3853211,44.2585998 C49.3853211,43.5304731 49.6123853,43.2375486 50.3524465,43.2626564 C51.7316514,43.2626564 53.1192661,43.2124408 54.5068807,43.2626564 C55.4655963,43.312872 55.7515291,43.0199475 55.7431193,42.0240041 C55.7431193,38.0067535 55.7431193,33.9895029 55.7431193,29.9722523 C56.8448012,30.2316998 57.1811927,31.5875218 58.3165138,31.8051229 C58.3165138,35.1528318 58.425841,38.5005406 58.3165138,41.8482494 C58.3165138,43.0701631 58.7454128,43.2710257 59.8218654,43.2710257 C60.898318,43.2710257 61.3272171,43.0617939 61.3103976,41.8398801 C61.2515291,37.9732764 61.3103976,34.0983035 61.3103976,30.2233305 C61.5122324,30.2986539 61.764526,30.3237618 61.8990826,30.4660394 C64.3211009,32.8931283 66.8692661,35.1863088 69.0558104,37.8309988 C69.3650372,37.9851376 69.7144926,38.0406642 70.0565749,37.990015 C71.9571865,37.990015 71.9571865,37.990015 71.9571865,36.1655137 L72.1590214,25 C73.353211,24.9590584 73.6559633,26.3818346 74.6819572,26.5743279 C74.6819572,29.9806216 74.7576453,33.3869153 74.6819572,36.7932091 C74.6819572,37.7975217 75.0015291,38.0737077 75.9434251,38.0318613 C77.4151376,37.9649072 78.8868502,38.0318613 80.3585627,38.0318613 C81.0229358,38.0318613 81.2920489,38.2578317 81.2752294,38.944112 C81.2752294,40.0739637 81.2752294,41.220554 81.2752294,42.3504057 C81.2247706,43.2877642 81.4770642,43.6476429 82.4946483,43.6309044 C86.1697248,43.5723195 89.853211,43.5639502 93.5282875,43.6309044 C94.5458716,43.6309044 94.7392966,43.2961335 94.7224771,42.358775 C94.6720183,38.9022656 94.7224771,35.4541255 94.7224771,32.0059855 C94.7862935,30.6970524 94.5772738,29.3891367 94.1085627,28.1644896 C94.6248401,28.2745482 95.0809271,28.5731599 95.3868502,29.0014168 L127,62 C127.235474,62.2008625 127.428899,62.4937871 127.655963,62.7532345 Z M88.535154,48.9818145 C90.3791376,48.9818145 92.2149978,48.9818145 94.0508581,48.9818145 C94.7332133,48.9818145 95.0662676,48.7852268 94.9850348,48.0398315 C94.9444413,47.6997606 94.9444413,47.3560078 94.9850348,47.0159369 C95.0743909,46.1968213 94.7657064,45.9920423 94.0021185,46.0002335 C90.3303979,46.0002335 86.6911704,46.0493804 82.9788335,46.0002335 C81.7603421,46.0002335 82.0284102,46.8193492 82.0284102,47.4500682 C82.0284102,48.0807873 81.7359723,49.0473438 83.0275731,48.9981968 C84.8634334,48.9326676 86.6992937,48.9818145 88.535154,48.9818145 Z" id="Shape" fill="#3D7BE2"></path>
                <path d="M55.5588417,30.2758079 C55.5588417,34.2290552 55.5005819,38.1906602 55.5588417,42.1439075 C55.5588417,43.121772 55.2841881,43.4142956 54.3353847,43.3641487 C52.9621167,43.2889283 51.5888486,43.3641487 50.2239033,43.3641487 C49.4914937,43.3641487 49.2584543,43.623241 49.2667771,44.3420132 C49.2667771,52.0813513 49.2667771,59.8206895 49.2667771,67.5600276 C49.2667771,68.3289467 49.4998165,68.638186 50.290486,68.6131125 C51.7053683,68.5629656 53.1202506,68.6131125 54.5351328,68.6131125 C61.1268196,68.6131125 67.7185063,68.6131125 74.3185159,68.6131125 C75.3422248,68.6131125 75.7833352,68.3790936 75.7084296,67.267504 C75.6168784,65.9804003 75.7084296,64.6849387 75.7084296,63.397835 C75.7084296,62.7375675 75.9414691,62.486833 76.607296,62.4951908 C80.4607694,62.4951908 84.3142429,62.4951908 88.1677163,62.4951908 C88.8918031,62.4951908 89,62.8211456 89,63.4396241 C89,67.5182385 89,71.6052108 89,75.6921831 C88.8785455,79.0200578 86.267044,81.7147796 82.9576205,81.9271143 C82.3583762,81.9271143 81.759132,81.9772612 81.1598877,81.9772612 L44.7141854,81.9772612 C43.0885853,82.0587444 41.459444,81.9210066 39.8702944,81.5677282 C38.8632311,80.7904512 37.7230025,80.163615 37.032207,79.0603832 C36.3493275,77.9847744 35.9909083,76.7337426 36,75.4581643 C36,62.4812611 36,49.501572 36,36.5190969 C35.9929269,33.037329 38.7279371,30.1726947 42.1923658,30.0334313 C46.3537842,29.9582109 50.5817853,30.0334313 54.7764951,30.0334313 C55.0428259,30.0250734 55.3757393,29.9414953 55.5588417,30.2758079 Z" id="Path" fill="#FDFDFE"></path>
                <path d="M93.367667,28.7038647 C93.8422396,29.9106788 94.0538627,31.2050985 93.9883668,32.5004542 C93.9883668,35.9106652 93.9464276,39.3292757 93.9883668,42.7394866 C93.9883668,43.671835 93.8122222,44.0162159 92.7972942,43.9994168 C89.1346064,43.9434199 85.4663267,43.9434199 81.7924551,43.9994168 C80.7775271,43.9994168 80.5258921,43.6634354 80.5762191,42.7310871 C80.6433218,41.613949 80.5762191,40.4884114 80.5762191,39.3712734 C80.5762191,38.6993106 80.3245841,38.4557241 79.6619451,38.4641236 C78.1940741,38.4641236 76.726203,38.4641236 75.2583319,38.4641236 C74.3188945,38.4641236 73.9917689,38.2373362 74,37.2377916 C74.0504837,33.8779779 74,30.5181641 74,27.1583504 C74.1511378,25.0248686 74.1511378,25.0248686 76.2900356,25.0248686 C79.6954965,25.0248686 83.1009574,25.0836654 86.4980304,25.0248686 C89.3114248,24.7902882 92.0005076,26.2304117 93.367667,28.7038647 Z" id="Path" fill="#FDFDFE"></path>
            </g>
            <rect id="Rectangle" fill="#FFFFFF" x="58" y="30" width="3" height="13"></rect>
            <rect id="Rectangle" fill="#FFFFFF" x="81" y="46" width="13" height="3"></rect>
            <rect id="Rectangle" fill="#FFFFFF" x="76" y="58" width="13" height="3"></rect>
            <rect id="Rectangle" fill="#FFFFFF" x="69" y="25" width="3" height="14"></rect>
        </g>
    </g>
</svg>