<?xml version="1.0" encoding="UTF-8"?>
<svg width="132px" height="125px" viewBox="0 0 132 125" version="1.1" xmlns="http://www.w3.org/2000/svg" xmlns:xlink="http://www.w3.org/1999/xlink">
    <!-- Generator: Sketch 55.2 (78181) - https://sketchapp.com -->
    <title>Data Catalog</title>
    <desc>Created with Sketch.</desc>
    <g id="Page-1" stroke="none" stroke-width="1" fill="none" fill-rule="evenodd">
        <g id="Data-Catalog" fill-rule="nonzero">
            <g id="BASE" fill="#4285F4">
                <path d="M130.17907,55.7794872 L103.17907,6.54871795 C101.146664,2.73259939 97.3104536,0.351453054 93.1325581,0.312820513 L38.8186047,0.312820513 C34.6333265,0.323646157 30.7846791,2.71251217 28.772093,6.54871795 L1.77209302,55.7794872 C-0.427066517,59.5009222 -0.427066517,64.2016419 1.77209302,67.9230769 L28.772093,117.482051 C30.7716689,121.376572 34.593704,123.87378 38.8186047,124.046154 L93.1325581,124.046154 C97.3672569,123.90726 101.203988,121.40045 103.17907,117.482051 L130.17907,68.2512821 C132.18861,64.3594078 132.18861,59.6713614 130.17907,55.7794872 Z" id="Path"></path>
            </g>
            <g id="shadow" transform="translate(40.000000, 39.000000)" fill="#000000" opacity="0.07">
                <path d="M60.3857143,16.3461538 L50.9571429,8.00961538 L43.76,1.47115385 L26.2857143,0.294230769 L12.5514286,1.79807692 L1.52,8.85961538 L4.28571429,25.6307692 L0.0114285714,35.0134615 L43.6342857,85 L53.0628571,85 C57.302037,84.8616489 61.1428286,82.3646309 63.12,78.4615385 L84.8057143,39.2307692 L60.3857143,16.3461538 Z" id="Path"></path>
            </g>
            <g id="Group-3" transform="translate(36.000000, 32.000000)" fill="#FFFFFF">
                <g id="Group-2">
                    <polygon id="Path" points="20.7407407 4.82258482 28.2010582 0 36.2962963 5.02926703 36.2645503 14.5710956 28.5820106 19.7037037 20.7407407 14.8811189"></polygon>
                    <polygon id="Path" points="4.14814815 31.7594863 11.6237219 26.962963 19.7037037 31.9665305 19.6718928 41.5595771 12.0054533 46.6666667 4.14814815 41.835636"></polygon>
                    <polygon id="Path" points="36.2962963 31.7855478 43.7566138 26.962963 51.8518519 31.99223 51.7883598 41.5340585 44.1375661 46.6666667 36.2962963 41.8440818"></polygon>
                    <polygon id="Path" points="38.3703704 6.29103037 38.3703704 11.8644901 45.6721946 11.8644901 49.5533444 19.3301738 46.461581 25.3164824 51.2965727 28 56 19.6742145 49.092869 6.22222222"></polygon>
                    <polygon id="Path" points="17.6296296 6.29113924 17.6296296 11.8734177 10.3221809 11.8734177 6.45545918 19.3509142 9.53572904 25.3466948 4.68594245 28 0 19.6954993 6.91422277 6.22222222"></polygon>
                    <polygon id="Path" points="16.5925926 47.7557085 21.2259209 44.8617939 24.0972792 50.2121709 32.1566601 50.1785207 35.6479708 44.5925926 40.4444444 47.5874577 35.5174545 55.8317492 21.3238081 56"></polygon>
                </g>
            </g>
        </g>
    </g>
</svg>