<svg xmlns="http://www.w3.org/2000/svg" viewBox="0 0 512 512"><defs><style>.cls-1,.cls-4{fill:#4285f4;}.cls-2{opacity:0.07;}.cls-3{fill:#fff;}.cls-4{stroke:#fff;stroke-linejoin:round;stroke-width:8px;}</style></defs><title>AIHub_Hex 512px</title><g id="BASE"><path class="cls-1" d="M505.9,232.48l-105.22-183C392.24,34.9,377,26,361.22,26H150.79c-16.86,0-31.59,9.88-39.46,23.5L6.11,232.1a45.9,45.9,0,0,0,0,45.75l105.22,183.8C119.75,476.26,135,486,150.78,486H361.21c16.86,0,31.59-10.63,39.46-24.24l105.22-183A46.94,46.94,0,0,0,505.9,232.48Z"/></g><g id="shadow"><path class="cls-2" d="M211.75,156.86l43.07,43.07,50.07,28.51-52.31-23.11-16-16-47.31-21.08-45.34,21.13L142.6,322.7,305.9,486h55.31c16.86,0,31.59-10.63,39.46-24.24L488.3,309.35l-119-119Z"/></g><g id="art"><path class="cls-3" d="M234.92,187.44,193,163.16a4,4,0,0,0-4,0l-45.08,26.18c-.11,0-.23.08-.34.14a4,4,0,0,0-2,3.47V320a4,4,0,0,0,2,3.46l41.93,24.29a4,4,0,0,0,2,.54,3.92,3.92,0,0,0,2-.54,4,4,0,0,0,2-3.46V219.59l43.44-25.23a4,4,0,0,0,2-3.46A4,4,0,0,0,234.92,187.44ZM149.55,317.7V199.94l33.93,19.65V337.35Z"/><path class="cls-3" d="M368.46,268.05a4,4,0,0,0-4,0L256,330.58l-43.47-25.1a4,4,0,0,0-6,3.46l-.07,48.45a4,4,0,0,0,2,3.47l45.47,26.26a4,4,0,0,0,4,0l110.47-63.69a4,4,0,0,0,2-3.46l.07-48.46A4,4,0,0,0,368.46,268.05ZM214.51,315.87l29.22,16.87L252,337.5v9.68l0,29.55-37.48-21.64Z"/><path class="cls-3" d="M369.25,190.3l-.1-.08a4,4,0,0,0-.73-.56h0l-110.86-64a4,4,0,0,0-4,0l-41.81,24.28a4,4,0,0,0,0,6.92L320.42,219.6v50.32a4,4,0,0,0,2,3.47,4.07,4.07,0,0,0,2,.53,4,4,0,0,0,2-.53l42-24.17a4,4,0,0,0,2-3.47V193.12A4,4,0,0,0,369.25,190.3Z"/><path class="cls-3" d="M303.35,226.78l-45.43-26.23a4,4,0,0,0-4,0l-45.43,26.23a4,4,0,0,0-2,3.47v52.46a4,4,0,0,0,2,3.46l45.43,26.24a4,4,0,0,0,2,.53,4.07,4.07,0,0,0,2-.53l45.43-26.24a4,4,0,0,0,2-3.46V230.25A4,4,0,0,0,303.35,226.78Zm-88.86,10.4,37.43,21.61V302L214.49,280.4Z"/><polygon class="cls-4" points="324.42 269.92 324.42 269.92 324.42 269.92 324.42 269.92"/></g></svg>