<svg xmlns="http://www.w3.org/2000/svg" viewBox="0 0 512 512"><defs><style>.cls-1{fill:#4285f4;}.cls-2{fill:none;}.cls-3{opacity:0.07;}.cls-4{fill:#fff;}</style></defs><title>AutoML_Translation_Hex 512px</title><g id="BASE"><path class="cls-1" d="M505.9,232.48l-105.22-183C392.24,34.91,377,26,361.22,26H150.79c-16.86,0-31.59,9.88-39.46,23.5L6.11,232.1a45.9,45.9,0,0,0,0,45.75l105.22,183.8C119.75,476.26,135,486,150.78,486H361.21c16.86,0,31.59-10.63,39.46-24.24l105.22-183A46.94,46.94,0,0,0,505.9,232.48Z"/><line class="cls-2" x1="353.47" y1="233.68" x2="357.47" y2="226.74"/></g><g id="shadow"><path class="cls-3" d="M400.67,461.76l83.62-145.43L309.23,141.27l-118.45,18.4L154,286.23l70.55,70.54-21.74,14L318,486h43.19C378.07,486,392.8,475.37,400.67,461.76Z"/></g><g id="art"><path class="cls-4" d="M190.78,350l12,20.74H322.24L382,267.25l-24-41.48L298.29,329.25H202.76Z"/><path class="cls-4" d="M321.21,162l-12-20.74H189.75L130,244.75,154,286.23,213.7,182.75h95.53Z"/><polygon class="cls-4" points="293.77 234.61 295.84 234.61 295.84 232.53 295.84 224.12 295.84 222.05 293.77 222.05 262.29 222.05 262.29 209.7 262.29 207.63 260.22 207.63 250.51 207.63 248.44 207.63 248.44 209.7 248.44 222.05 218.06 222.05 215.99 222.05 215.99 224.12 215.99 232.53 215.99 234.61 218.06 234.61 293.77 234.61"/><path class="cls-4" d="M298,290.44a85.51,85.51,0,0,1-31.83-16,85.75,85.75,0,0,0,15.61-26.18h-15.5s-2.65,7.51-10,16.56c-7.61-9-10.2-16.56-10.2-16.56H230.71a104.18,104.18,0,0,0,16,26.32,84.62,84.62,0,0,1-32.78,17.29l7.51,12.49a106.32,106.32,0,0,0,34.72-20c17.45,15.61,34.58,19.22,34.58,19.22Z"/></g></svg>