<svg xmlns="http://www.w3.org/2000/svg" viewBox="0 0 512 512"><defs><style>.cls-1{fill:#4285f4;}.cls-2{opacity:0.07;}.cls-3{fill:#fff;}</style></defs><title>AutoML Video Intelligence_Hex 512px</title><g id="BASE"><path class="cls-1" d="M505.9,232.48l-105.22-183C392.24,34.91,377,26,361.22,26H150.79c-16.86,0-31.59,9.88-39.46,23.5L6.11,232.1a45.9,45.9,0,0,0,0,45.75l105.22,183.8C119.75,476.26,135,486,150.78,486H361.21c16.86,0,31.59-10.63,39.46-24.24l105.22-183A46.94,46.94,0,0,0,505.9,232.48Z"/></g><g id="shadow"><path class="cls-2" d="M309.19,141.05l-118.43,18.4L153.94,286l70.53,70.53-21.74,14L318.24,486h43c16.86,0,31.59-10.63,39.46-24.24l83.69-145.54Z"/></g><g id="art"><path class="cls-3" d="M190.8,350l12,20.74H322.24L382,267.25l-24-41.48L298.29,329.24H202.77Z"/><path class="cls-3" d="M321.2,162l-12-20.74H189.76L130,244.75,154,286.23l59.74-103.47h95.52Z"/></g><g id="Guides"><polygon class="cls-3" points="300.78 230.73 283.93 243.12 283.93 269.3 300.78 281.96 300.78 230.73"/><polygon class="cls-3" points="241.78 259.81 237.02 268.48 225.49 268.48 232.68 256.11 225.49 243.52 237.02 243.52 241.78 251.56 273.22 251.56 273.22 226 247.71 226 253.09 234.62 262.51 234.62 262.51 243.94 247.17 243.94 235.71 226 213.22 226 213.22 286 235.71 286 247.17 268.06 262.51 268.06 262.51 277.38 253.09 277.38 247.71 286 273.22 286 273.22 259.81 241.78 259.81"/></g></svg>