<svg xmlns="http://www.w3.org/2000/svg" viewBox="0 0 128 128"><defs><style>.cls-1{fill:#4285f4;}.cls-2{opacity:0.07;}.cls-3{fill:#fff;}</style></defs><title>Inference_API_Hex 128px</title><g id="BASE"><path class="cls-1" d="M126.47,58.12l-26.3-45.74A11.56,11.56,0,0,0,90.31,6.5H37.7a11.54,11.54,0,0,0-9.87,5.88L1.53,58a11.44,11.44,0,0,0,0,11.43l26.3,46a11.78,11.78,0,0,0,9.86,6.09H90.3a11.74,11.74,0,0,0,9.87-6.06l26.3-45.75A11.7,11.7,0,0,0,126.47,58.12Z"/></g><g id="shadow"><path class="cls-2" d="M78.83,37.1l-2.5,15.46-9.42-9.42-4.39,13.4L43.07,37.1l-6,22.58L51.17,73.74l0,2.69-8.12-8.11-6,10.49L79.8,121.5H90.3a11.74,11.74,0,0,0,9.87-6.06L121,79.25Z"/></g><g id="art"><path class="cls-3" d="M62.82,61.23c1.34-.53,2.69-1.07,4.09-1.55V43.14H61V62C61.57,61.73,62.19,61.49,62.82,61.23Z"/><path class="cls-3" d="M65,66.77c-1.34.53-2.69,1.07-4.09,1.55V84.86h6V66C66.29,66.27,65.67,66.51,65,66.77Z"/><path class="cls-3" d="M75.85,58a24,24,0,0,1,3,.19V37.1h-6V58.23A24,24,0,0,1,75.85,58Z"/><path class="cls-3" d="M75.85,64a18.05,18.05,0,0,0-3,.26V78.81h6V64.26A18.25,18.25,0,0,0,75.85,64Z"/><path class="cls-3" d="M52,64a18.05,18.05,0,0,0,3-.26V49H49V63.74A18.25,18.25,0,0,0,52,64Z"/><path class="cls-3" d="M52,70a24,24,0,0,1-3-.19v21h6v-21A24,24,0,0,1,52,70Z"/><path class="cls-3" d="M88.87,61.23c.63.26,1.26.5,1.88.74V49h-6V59.68C86.19,60.16,87.54,60.7,88.87,61.23Z"/><path class="cls-3" d="M86.66,66.77c-.63-.26-1.25-.5-1.87-.74v24.7h6V68.32C89.35,67.84,88,67.3,86.66,66.77Z"/><path class="cls-3" d="M39,66.77c-.63-.26-1.25-.5-1.88-.74V78.81h6V68.32C41.67,67.84,40.32,67.3,39,66.77Z"/><path class="cls-3" d="M41.2,61.23c.63.26,1.25.5,1.87.74V37.1h-6V59.68C38.51,60.16,39.87,60.7,41.2,61.23Z"/></g></svg>