<svg id="Layer_1" data-name="Layer 1" xmlns="http://www.w3.org/2000/svg" viewBox="0 0 130 118.1"><defs><style>.cls-1{fill:#4285f4}.cls-3{fill:#fff}</style></defs><path class="cls-1" d="M127.46 53.15l-26.3-45.74a11.56 11.56 0 0 0-9.86-5.88H38.69a11.59 11.59 0 0 0-9.86 5.88L2.52 53a11.51 11.51 0 0 0 0 11.44l26.3 46a11.79 11.79 0 0 0 9.86 6.09h52.61a11.71 11.71 0 0 0 9.87-6.06l26.3-45.74a11.73 11.73 0 0 0 0-11.58z"/><path class="cls-1" d="M91.41 41.77H89.3l-5.83-5.86-43.83 11.15 5.67 4.71-5.67 5.29L45 61.77l-5.39 5.29 6 4.71-6 5.29L79 116.56h12.29a11.71 11.71 0 0 0 9.87-6.06l21.24-36.93h-.07z"/><path d="M80.25 35.92l-32.5 5.33 1.53 2.82-8 5 2.82 4.84h-6v23.41L79 116.56h12.29a11.71 11.71 0 0 0 9.87-6.06l19.71-34.26z" fill="#407add"/><path class="cls-3" d="M82.25 41.24h-34.5l2-5.32h30.5l2 5.32zM88.72 49.1H41.28l2-5.03h43.44l2 5.03zM75.73 53.94l-1.77 3.31H56.04l-1.77-3.31H38.1v23.38h53.8V53.94H75.73z"/></svg>