<?xml version="1.0" encoding="UTF-8"?>
<svg width="135px" height="122px" viewBox="0 0 135 122" version="1.1" xmlns="http://www.w3.org/2000/svg" xmlns:xlink="http://www.w3.org/1999/xlink">
    <!-- Generator: Sketch 55.2 (78181) - https://sketchapp.com -->
    <title>GKE_On_Premises</title>
    <desc>Created with Sketch.</desc>
    <g id="Page-1" stroke="none" stroke-width="1" fill="none" fill-rule="evenodd">
        <g id="GKE_On_Premises" fill-rule="nonzero">
            <g id="BASE" fill="#4285F4">
                <path d="M133.392857,54.7740028 L105.75,6.54750712 C103.5,2.68938746 99.6428571,0.438817664 95.4642857,0.438817664 L39.8571429,0.438817664 C35.3571429,0.438817664 31.5,3.01089744 29.5714286,6.54750712 L1.92857143,54.7740028 C-0.321428571,58.6321225 -0.321428571,63.1332621 1.92857143,66.6698718 L29.5714286,115.217877 C31.8214286,119.075997 35.6785714,121.648077 39.8571429,121.648077 L95.4642857,121.648077 C99.9642857,121.648077 103.821429,118.754487 105.75,115.217877 L133.392857,66.9913818 C135.642857,63.1332621 135.321429,58.3106125 133.392857,54.7740028 Z" id="Path"></path>
            </g>
            <g id="shadow" transform="translate(38.000000, 30.000000)" fill="#000000" opacity="0.07">
                <path d="M58.4081633,14.5696041 L52.5673469,13.2771392 L48.6734694,9.39974457 L29.2040816,0.0293742018 L0,18.4469987 L4.86734694,23.293742 L2.59591837,46.5581098 L47.3755102,91.1481481 L57.1102041,91.1481481 C61.6530612,91.1481481 65.5469388,88.2401022 67.4938776,84.6858238 L89.8836735,45.9118774 L58.4081633,14.5696041 Z" id="Path"></path>
            </g>
            <g id="art" transform="translate(36.000000, 28.000000)" fill="#FFFFFF">
                <g id="Group">
                    <polygon id="Path" points="47.2389041 20.9724311 31.4246575 11.6691729 15.2876712 20.9724311 31.4246575 29.9548872"></polygon>
                    <path d="M31.4246575,33.1629073 L14.3194521,23.2180451 L14.3194521,31.2380952 L31.4246575,40.8621554 L48.529863,30.9172932 L48.529863,23.2180451 L31.4246575,33.1629073 Z M45.6252055,30.2756892 C44.979726,30.2756892 44.6569863,29.6340852 44.6569863,28.9924812 C44.6569863,28.3508772 45.3024658,27.7092732 45.6252055,27.7092732 C45.9479452,27.7092732 46.5934247,28.3508772 46.5934247,28.9924812 C46.9161644,29.6340852 46.2706849,30.2756892 45.6252055,30.2756892 Z" id="Shape"></path>
                    <path d="M31.4246575,44.0701754 L14.3194521,34.1253133 L14.3194521,40.8621554 L31.4246575,50.8070175 L48.529863,40.8621554 L48.529863,34.1253133 L31.4246575,44.0701754 Z M45.6252055,40.5413534 C44.979726,40.5413534 44.6569863,39.8997494 44.6569863,39.2581454 C44.6569863,38.6165414 45.3024658,37.9749373 45.6252055,37.9749373 C46.2706849,37.9749373 46.5934247,38.6165414 46.5934247,39.2581454 C46.5934247,39.8997494 46.2706849,40.5413534 45.6252055,40.5413534 Z" id="Shape"></path>
                    <path d="M28.52,53.0526316 C27.5517808,53.0526316 26.5835616,53.3734336 25.6153425,54.0150376 L8.83287671,44.3909774 L8.83287671,25.1428571 L3.6690411,25.1428571 L3.6690411,45.6741855 C3.6690411,46.6365915 4.31452055,47.5989975 4.96,47.9197995 L23.0334247,57.8646617 C23.0334247,57.8646617 23.0334247,58.1854637 23.0334247,58.1854637 C23.0334247,61.0726817 25.6153425,63.6390977 28.52,63.6390977 C31.4246575,63.6390977 34.0065753,61.0726817 34.0065753,58.1854637 C34.0065753,55.2982456 31.4246575,53.0526316 28.52,53.0526316 Z" id="Path"></path>
                    <path d="M50.4663014,10.7067669 L32.3928767,0.441102757 C31.7473973,0.120300752 30.7791781,0.120300752 29.8109589,0.441102757 L9.15561644,12.3107769 C8.18739726,11.6691729 7.21917808,11.3483709 5.92821918,11.3483709 C3.02356164,11.3483709 0.441643836,13.914787 0.441643836,16.802005 C0.441643836,19.6892231 3.02356164,22.2556391 5.92821918,22.2556391 C8.83287671,22.2556391 11.4147945,19.6892231 11.4147945,16.802005 L31.1019178,5.57393484 L47.8843836,15.197995 L50.4663014,10.7067669 Z" id="Path"></path>
                    <path d="M56.2756164,14.235589 C53.3709589,14.235589 50.7890411,16.802005 50.7890411,19.6892231 C50.7890411,21.6140351 52.08,23.5388471 53.6936986,24.5012531 L53.6936986,46.9573935 L36.9112329,56.9022556 L39.4931507,61.0726817 L57.5665753,50.4862155 C58.2120548,50.1654135 58.8575342,49.2030075 58.8575342,48.2406015 L58.8575342,24.5012531 C60.7939726,23.5388471 61.7621918,21.6140351 61.7621918,19.6892231 C62.0849315,16.802005 59.5030137,14.235589 56.2756164,14.235589 Z" id="Path"></path>
                </g>
            </g>
        </g>
    </g>
</svg>