<svg xmlns="http://www.w3.org/2000/svg" viewBox="0 0 511.63 459.66"><defs><style>.cls-1{fill:#4285f4;}.cls-2{fill:#231f20;opacity:0.07;}.cls-3{fill:#fff;}</style></defs><title>CloudServiceMesh_512px</title><g id="Layer_2" data-name="Layer 2"><g id="Layer_3" data-name="Layer 3"><path class="cls-1" d="M505.53,206.33,400.38,23.5C392,8.9,376.68,0,361,0H150.68c-16.85,0-31.56,9.88-39.43,23.49L6.11,206a45.84,45.84,0,0,0,0,45.72L111.24,435.34c8.42,14.59,23.7,24.32,39.43,24.32H360.94c16.86,0,31.57-10.62,39.44-24.22L505.52,252.59A46.88,46.88,0,0,0,505.53,206.33Z"/><path class="cls-2" d="M318.42,116.56l-8.2,6.42-43.5,34.08-42.81-42.81h0l-30.07,29.8,46.1,46.11L219.47,205.5l-9.11,3-38.77-38.77-31.45,28.51v0l93.07,93.07-3,6.63-56.29-56.29L147.08,280.4l-7,10.06,169.2,169.2h51.62c16.86,0,31.57-10.62,39.44-24.22L486.87,285Z"/><rect class="cls-3" x="156.33" y="248.95" width="30.53" height="23.98" transform="translate(-134.26 197.76) rotate(-45)"/><rect class="cls-3" x="274.09" y="298.97" width="23.98" height="30.53" transform="translate(-138.4 294.33) rotate(-45)"/><polygon class="cls-3" points="255.48 266.67 219.15 230.34 305.36 144.13 288.4 127.18 255.48 160.09 222.56 127.18 205.61 144.13 238.53 177.05 202.19 213.38 169.28 180.47 152.32 197.42 238.53 283.63 205.61 316.55 222.56 333.5 297.44 258.63 280.49 241.67 255.48 266.67"/><polygon class="cls-3" points="358.64 197.42 341.69 180.47 308.77 213.38 283.77 188.38 266.81 205.34 341.69 280.21 358.64 263.26 325.73 230.34 358.64 197.42"/><circle class="cls-3" cx="302.22" cy="130.32" r="21.27"/><circle class="cls-3" cx="302.22" cy="330.36" r="21.27"/><circle class="cls-3" cx="210.01" cy="130.32" r="21.27"/><circle class="cls-3" cx="210.01" cy="330.36" r="21.27"/><circle class="cls-3" cx="356.13" cy="276.45" r="21.27"/><circle class="cls-3" cx="156.09" cy="276.45" r="21.27"/><circle class="cls-3" cx="356.13" cy="184.23" r="21.27"/><circle class="cls-3" cx="156.09" cy="184.23" r="21.27"/></g></g></svg>