<?xml version="1.0" encoding="UTF-8"?>
<svg width="135px" height="122px" viewBox="0 0 135 122" version="1.1" xmlns="http://www.w3.org/2000/svg" xmlns:xlink="http://www.w3.org/1999/xlink">
    <!-- Generator: Sketch 55.2 (78181) - https://sketchapp.com -->
    <title>Profiler 3</title>
    <desc>Created with Sketch.</desc>
    <g id="Page-1" stroke="none" stroke-width="1" fill="none" fill-rule="evenodd">
        <g id="Profiler-3">
            <g id="Profiler-2">
                <g id="Profiler">
                    <g id="shadow">
                        <g id="Mask-2-2" fill="#4285F4" fill-rule="nonzero">
                            <path d="M132.611538,54.5106383 L105.118269,6.35957447 C103.031758,2.60623246 99.1055856,0.246286102 94.8115385,0.164397163 L39.8076923,0.164397163 C35.5167605,0.249341959 31.5945822,2.60886891 29.5096154,6.35957447 L2.01634615,54.415461 C-0.112356065,58.1512182 -0.112356065,62.7326116 2.01634615,66.4683688 L29.5009615,114.92227 C31.5667968,118.728275 35.4804628,121.169413 39.8076923,121.351064 L94.8028846,121.351064 C99.1273766,121.191523 103.047586,118.764797 105.118269,114.965532 L132.611538,66.7798582 C134.761611,62.9726151 134.761611,58.3178814 132.611538,54.5106383 Z" id="path-1"></path>
                        </g>
                        <g id="Shape-Clipped" transform="translate(44.134615, 26.822695)" fill="#3D7BE2">
                            <path d="M82.2115385,51.0496454 L59.7115385,89.9858156 C56.9410326,92.7558848 53.1836824,94.3120567 49.2659043,94.3120567 L40.6730769,94.3120567 L3.65495075,57.6413955 L0.467307692,36.3531298 L6.00243983,23.5920019 L21.8006295,16.5353517 L10.2691042,9.47870152 L10.2691042,1.39101981 L33.4721804,0.579716312 L82.2115385,51.0496454 Z" id="Path-2"></path>
                        </g>
                    </g>
                    <ellipse id="Oval" fill="#FFFFFF" fill-rule="nonzero" cx="67.0153846" cy="66.7539007" rx="12.2538462" ry="12.2519149"></ellipse>
                    <rect id="Rectangle" fill="#FFFFFF" fill-rule="nonzero" x="54.9" y="27.4024113" width="24.5163462" height="8.16794326"></rect>
                    <polygon id="Rectangle-Copy" fill="#FFFFFF" fill-rule="nonzero" transform="translate(89.630923, 43.737604) rotate(-45.000000) translate(-89.630923, -43.737604) " points="83.5041606 39.652828 95.7570411 39.6537936 95.7576848 47.8223807 83.5048043 47.821415"></polygon>
                    <path d="M82.8432692,44.7506383 L91.0730769,36.5221277 L96.8538462,42.2933333 L88.6846154,50.4612766 C97.2205183,61.7935864 95.5811982,77.7881202 84.9238969,87.1538901 C74.2665957,96.5196601 58.1914315,96.0928372 48.0463115,86.1747276 C37.9011914,76.256618 37.1132149,60.1976354 46.2386367,49.3342638 C55.3640584,38.4708921 71.3202407,36.4728619 82.8432692,44.7506383 L82.8432692,44.7506383 Z M67.0153846,85.8239716 C77.5300366,85.8239716 86.0538462,77.3015055 86.0538462,66.7885106 C86.0538462,56.2755158 77.5300366,47.7530496 67.0153846,47.7530496 C56.5007326,47.7530496 47.9769231,56.2755158 47.9769231,66.7885106 C47.9769231,77.3015055 56.5007326,85.8239716 67.0153846,85.8239716 Z M67.0153846,79.0144681 C62.0556663,79.0144681 57.5843139,76.0272767 55.6863118,71.4458167 C53.7883098,66.8643567 54.8374373,61.5908681 58.3444877,58.0843704 C61.8515381,54.5778727 67.125858,53.5289106 71.7080402,55.4266135 C76.2902224,57.3243163 79.2778846,61.7949641 79.2778846,66.7539007 C79.2778846,73.5252251 73.7877764,79.0144681 67.0153846,79.0144681 Z M54.9,27.4024113 L79.4163462,27.4024113 L79.4163462,35.5703546 L54.9,35.5703546 L54.9,27.4024113 Z" id="Combined-Shape" fill="#FFFFFF"></path>
                </g>
            </g>
        </g>
    </g>
</svg>