<?xml version="1.0" encoding="UTF-8"?>
<svg width="80px" height="70px" viewBox="0 0 80 70" version="1.1" xmlns="http://www.w3.org/2000/svg" xmlns:xlink="http://www.w3.org/1999/xlink">
    <!-- Generator: Sketch 53.1 (72631) - https://sketchapp.com -->
    <title>Cloud Tasks</title>
    <desc>Created with Sketch.</desc>
    <defs>
        <linearGradient x1="50.0019532%" y1="0.00219423355%" x2="50.0019532%" y2="100%" id="linearGradient-1">
            <stop stop-color="#4387FD" offset="0%"></stop>
            <stop stop-color="#4683EA" offset="100%"></stop>
        </linearGradient>
        <linearGradient x1="50.0019532%" y1="0.00219423355%" x2="50.0019532%" y2="100%" id="linearGradient-2">
            <stop stop-color="#4387FD" offset="0%"></stop>
            <stop stop-color="#4683EA" offset="100%"></stop>
        </linearGradient>
        <path d="M17.3744945,66.4375984 L1.04362061,38.5200225 C-0.234403809,36.3352999 -0.234403809,33.6436107 1.04362061,31.4588882 L17.3744945,3.54131234 C18.6523197,1.35693022 21.0136888,0.0111382945 23.5693393,0.0107452041 L56.231087,0.0107452041 C58.7867375,0.0111382945 61.1481066,1.35693022 62.4259321,3.54131234 L78.7568057,31.4588882 C80.0348303,33.6436107 80.0348303,36.3352999 78.7568057,38.5200225 L62.4259321,66.4375984 C61.1481066,68.6219804 58.7867375,69.9677721 56.231087,69.9681652 L23.5693393,69.9681652 C21.0136888,69.9677721 18.6523197,68.6219804 17.3744945,66.4375984 L17.3744945,66.4375984 Z" id="path-3"></path>
        <path d="M17.3744945,66.4375984 L1.04362061,38.5200225 C-0.234403809,36.3352999 -0.234403809,33.6436107 1.04362061,31.4588882 L17.3744945,3.54131234 C18.6523197,1.35693022 21.0136888,0.0111382945 23.5693393,0.0107452041 L56.231087,0.0107452041 C58.7867375,0.0111382945 61.1481066,1.35693022 62.4259321,3.54131234 L78.7568057,31.4588882 C80.0348303,33.6436107 80.0348303,36.3352999 78.7568057,38.5200225 L62.4259321,66.4375984 C61.1481066,68.6219804 58.7867375,69.9677721 56.231087,69.9681652 L23.5693393,69.9681652 C21.0136888,69.9677721 18.6523197,68.6219804 17.3744945,66.4375984 L17.3744945,66.4375984 Z" id="path-5"></path>
        <path d="M17.3744945,66.4375984 L1.04362061,38.5200225 C-0.234403809,36.3352999 -0.234403809,33.6436107 1.04362061,31.4588882 L17.3744945,3.54131234 C18.6523197,1.35693022 21.0136888,0.0111382945 23.5693393,0.0107452041 L56.231087,0.0107452041 C58.7867375,0.0111382945 61.1481066,1.35693022 62.4259321,3.54131234 L78.7568057,31.4588882 C80.0348303,33.6436107 80.0348303,36.3352999 78.7568057,38.5200225 L62.4259321,66.4375984 C61.1481066,68.6219804 58.7867375,69.9677721 56.231087,69.9681652 L23.5693393,69.9681652 C21.0136888,69.9677721 18.6523197,68.6219804 17.3744945,66.4375984 L17.3744945,66.4375984 Z" id="path-7"></path>
        <path d="M17.3744945,66.4375984 L1.04362061,38.5200225 C-0.234403809,36.3352999 -0.234403809,33.6436107 1.04362061,31.4588882 L17.3744945,3.54131234 C18.6523197,1.35693022 21.0136888,0.0111382945 23.5693393,0.0107452041 L56.231087,0.0107452041 C58.7867375,0.0111382945 61.1481066,1.35693022 62.4259321,3.54131234 L78.7568057,31.4588882 C80.0348303,33.6436107 80.0348303,36.3352999 78.7568057,38.5200225 L62.4259321,66.4375984 C61.1481066,68.6219804 58.7867375,69.9677721 56.231087,69.9681652 L23.5693393,69.9681652 C21.0136888,69.9677721 18.6523197,68.6219804 17.3744945,66.4375984 L17.3744945,66.4375984 Z" id="path-9"></path>
        <path d="M17.3744945,66.4375984 L1.04362061,38.5200225 C-0.234403809,36.3352999 -0.234403809,33.6436107 1.04362061,31.4588882 L17.3744945,3.54131234 C18.6523197,1.35693022 21.0136888,0.0111382945 23.5693393,0.0107452041 L56.231087,0.0107452041 C58.7867375,0.0111382945 61.1481066,1.35693022 62.4259321,3.54131234 L78.7568057,31.4588882 C80.0348303,33.6436107 80.0348303,36.3352999 78.7568057,38.5200225 L62.4259321,66.4375984 C61.1481066,68.6219804 58.7867375,69.9677721 56.231087,69.9681652 L23.5693393,69.9681652 C21.0136888,69.9677721 18.6523197,68.6219804 17.3744945,66.4375984 L17.3744945,66.4375984 Z" id="path-11"></path>
        <path d="M1.04362061,38.5200225 C-0.234403809,36.3352999 -0.234403809,33.6436107 1.04362061,31.4588882 L17.3744945,3.54131234 C18.6523197,1.35693022 21.0136888,0.0111382945 23.5693393,0.0107452041 L56.231087,0.0107452041 C58.7867375,0.0111382945 61.1481066,1.35693022 62.4259321,3.54131234 L78.7568057,31.4588882 C80.0348303,33.6436107 80.0348303,36.3352999 78.7568057,38.5200225 L62.4259321,66.4375984 C61.1481066,68.6219804 58.7867375,69.9677721 56.231087,69.9681652 L23.5693393,69.9681652 C21.0136888,69.9677721 18.6523197,68.6219804 17.3744945,66.4375984 L1.04362061,38.5200225 Z" id="path-13"></path>
    </defs>
    <g id="Page-1" stroke="none" stroke-width="1" fill="none" fill-rule="evenodd">
        <g id="Cloud-Tasks">
            <g id="Mask" fill="url(#linearGradient-2)" fill-rule="nonzero">
                <path d="M17.3744945,66.4375984 L1.04362061,38.5200225 C-0.234403809,36.3352999 -0.234403809,33.6436107 1.04362061,31.4588882 L17.3744945,3.54131234 C18.6523197,1.35693022 21.0136888,0.0111382945 23.5693393,0.0107452041 L56.231087,0.0107452041 C58.7867375,0.0111382945 61.1481066,1.35693022 62.4259321,3.54131234 L78.7568057,31.4588882 C80.0348303,33.6436107 80.0348303,36.3352999 78.7568057,38.5200225 L62.4259321,66.4375984 C61.1481066,68.6219804 58.7867375,69.9677721 56.231087,69.9681652 L23.5693393,69.9681652 C21.0136888,69.9677721 18.6523197,68.6219804 17.3744945,66.4375984 L17.3744945,66.4375984 Z" id="path-2"></path>
            </g>
            <g id="Shape-Clipped">
                <g>
                    <mask id="mask-4" fill="white">
                        <use xlink:href="#path-3"></use>
                    </mask>
                    <g id="path-8"></g>
                    <polygon id="Shape" fill="#000000" fill-rule="nonzero" opacity="0.07" mask="url(#mask-4)" points="56.52857 22.2663138 79.0154054 44.1665753 63.3326839 71.0012403 50.3725557 74.8792445 23.1715412 47.8704058 26.8801543 22.2738374 33.5491318 28.6167296 34.2968801 22.2663138 41.0174235 28.6167296 41.7111609 22.2663138 48.8951901 29.111009 49.1160048 22.2663138 56.261151 29.1724101 54.921291 22.8028586"></polygon>
                </g>
            </g>
            <g id="Rectangle-path-Clipped">
                <g>
                    <mask id="mask-6" fill="white">
                        <use xlink:href="#path-5"></use>
                    </mask>
                    <g id="path-10"></g>
                    <rect id="Rectangle-path" fill="#FFFFFF" fill-rule="nonzero" mask="url(#mask-6)" x="23.1742877" y="22.2579232" width="3.70724884" height="25.612165"></rect>
                </g>
            </g>
            <g id="Rectangle-path-Clipped">
                <g>
                    <mask id="mask-8" fill="white">
                        <use xlink:href="#path-7"></use>
                    </mask>
                    <g id="path-12"></g>
                    <rect id="Rectangle-path" fill="#FFFFFF" fill-rule="nonzero" mask="url(#mask-8)" x="52.8322784" y="22.2579232" width="3.70724884" height="25.612165"></rect>
                </g>
            </g>
            <g id="Rectangle-path-Clipped">
                <g>
                    <mask id="mask-10" fill="white">
                        <use xlink:href="#path-9"></use>
                    </mask>
                    <g id="path-14"></g>
                    <rect id="Rectangle-path" fill="#FFFFFF" fill-rule="nonzero" mask="url(#mask-10)" x="38.003283" y="22.2579232" width="3.70724884" height="25.612165"></rect>
                </g>
            </g>
            <g id="Rectangle-path-Clipped">
                <g>
                    <mask id="mask-12" fill="white">
                        <use xlink:href="#path-11"></use>
                    </mask>
                    <g id="path-16"></g>
                    <rect id="Rectangle-path" fill="#FFFFFF" fill-rule="nonzero" mask="url(#mask-12)" x="30.5887853" y="22.2579232" width="3.70724884" height="25.612165"></rect>
                </g>
            </g>
            <g id="Rectangle-path-Clipped">
                <g>
                    <mask id="mask-14" fill="white">
                        <use xlink:href="#path-13"></use>
                    </mask>
                    <g id="path-18"></g>
                    <rect id="Rectangle-path" fill="#FFFFFF" fill-rule="nonzero" mask="url(#mask-14)" x="45.4177807" y="22.2579232" width="3.70724884" height="25.612165"></rect>
                </g>
            </g>
        </g>
    </g>
</svg>