<?xml version="1.0" encoding="UTF-8"?>
<svg width="116px" height="125px" viewBox="0 0 116 125" version="1.1" xmlns="http://www.w3.org/2000/svg" xmlns:xlink="http://www.w3.org/1999/xlink">
    <!-- Generator: Sketch 55.2 (78181) - https://sketchapp.com -->
    <title>Cloud Scheduler</title>
    <desc>Created with Sketch.</desc>
    <g id="Page-1" stroke="none" stroke-width="1" fill="none" fill-rule="evenodd">
        <g id="Cloud-Scheduler" transform="translate(-7.000000, -3.000000)">
            <circle id="Oval" fill="#FFFFFF" fill-rule="nonzero" cx="65" cy="69" r="48"></circle>
            <g id="scheduler">
                <rect id="Container" x="0" y="0.762988553" width="131.284044" height="131.234031"></rect>
                <g id="Group-2" transform="translate(7.264130, 3.814942)" fill="#4285F4" fill-rule="nonzero">
                    <polygon id="Rectangle-9" transform="translate(91.624762, 110.241004) scale(-1, 1) rotate(30.000000) translate(-91.624762, -110.241004) " points="85.5165554 98.359483 97.6974474 98.3777365 97.7329685 122.122526 85.5520765 122.104272"></polygon>
                    <polygon id="Rectangle-12" points="88.1838107 116.146905 85.6208418 111.525433 95.0637464 104.163729 96.6295324 107.085429"></polygon>
                    <polygon id="Rectangle-9" transform="translate(25.930106, 110.241005) rotate(30.000000) translate(-25.930106, -110.241005) " points="19.8218996 98.3594834 32.0027917 98.3777372 32.0383129 122.122526 19.8574206 122.104273"></polygon>
                    <polygon id="Rectangle-12" points="20.0789038 108.366945 21.9809907 104.99377 31.6273794 112.478625 29.0679487 116.86173"></polygon>
                    <g id="Group" transform="translate(4.474580, 12.360414)">
                        <path d="M53.3769129,107.123593 C23.8976579,107.123593 0,83.1431595 0,53.5617964 C0,23.9804331 23.8976579,0 53.3769129,0 C82.8561677,0 106.753826,23.9804331 106.753826,53.5617964 C106.753826,83.1431595 82.8561677,107.123593 53.3769129,107.123593 Z M53.3769129,92.7031091 C74.9194452,92.7031091 92.3831184,75.1789465 92.3831184,53.5617964 C92.3831184,31.9446463 74.9194452,14.4204836 53.3769129,14.4204836 C31.8343804,14.4204836 14.3707073,31.9446463 14.3707073,53.5617964 C14.3707073,75.1789465 31.8343804,92.7031091 53.3769129,92.7031091 Z" id="Combined-Shape"></path>
                        <path d="M52.5020666,83.2520896 C58.3341471,83.2520896 63.7664025,81.5343065 68.3237747,78.5754454 C76.3530539,73.3624569 81.666678,64.2971394 81.666678,53.9864593 C81.666678,37.823498 68.6092364,24.7208291 52.5020666,24.7208291 L52.5020666,53.9864593 L28.7414146,70.9607181 C34.0293657,78.4008121 42.7011331,83.2520896 52.5020666,83.2520896 Z" id="Oval"></path>
                    </g>
                    <polygon id="Rectangle" transform="translate(101.109515, 14.566887) rotate(45.000000) translate(-101.109515, -14.566887) " points="86.7032535 8.37245789 115.494444 8.42223424 115.515777 20.7613161 86.7245861 20.7115398"></polygon>
                    <polygon id="Rectangle" transform="translate(14.885269, 14.566889) scale(-1, 1) rotate(45.000000) translate(-14.885269, -14.566889) " points="0.479006877 8.3724599 29.2701977 8.42223624 29.2915305 20.7613181 0.500339593 20.7115418"></polygon>
                </g>
            </g>
        </g>
    </g>
</svg>