<svg xmlns="http://www.w3.org/2000/svg" viewBox="0 0 512 512"><defs><style>.cls-1{fill:#4285f4;}.cls-2{opacity:0.07;}.cls-3{fill:#fff;}</style></defs><title>Cloud Code for IDE</title><g id="Art-2" data-name="Art"><path class="cls-1" d="M505.33,233.47,400.48,51.13c-8.41-14.56-23.64-23.44-39.32-23.44H151.44c-16.8,0-31.47,9.85-39.32,23.43L7.26,233.09a45.75,45.75,0,0,0,0,45.59L112.11,461.85c8.4,14.56,23.64,24.27,39.32,24.27H361.14c16.81,0,31.48-10.6,39.33-24.16L505.32,279.61A46.73,46.73,0,0,0,505.33,233.47Z"/><path class="cls-2" d="M251.1,205.44l-91.85,0-5.39,5.15-46,46.28L337,486.12h24.1c16.81,0,31.48-10.6,39.33-24.16L476.9,329l-62.37-62.37.17-.11-61.15-61.14H261.49Z"/><g id="Layer_1-2" data-name="Layer 1-2"><polygon class="cls-3" points="159.03 205.41 205.08 159.13 251.12 205.41 205.08 251.7 159.03 205.41"/><polygon class="cls-3" points="107.82 256.9 153.86 210.62 199.91 256.9 153.86 303.18 107.82 256.9"/><polygon class="cls-3" points="159.04 308.39 205.08 262.11 251.12 308.39 205.08 354.68 159.04 308.39"/><polygon class="cls-3" points="261.47 205.41 307.5 159.13 353.56 205.41 307.5 251.7 261.47 205.41"/><polygon class="cls-3" points="312.68 256.9 358.73 210.62 404.77 256.9 358.73 303.19 312.68 256.9"/><polygon class="cls-3" points="261.47 308.39 307.5 262.11 353.54 308.39 307.5 354.68 261.47 308.39"/></g></g></svg>