<svg xmlns="http://www.w3.org/2000/svg" viewBox="0 0 512 512"><defs><style>.cls-1{fill:#4285f4;}.cls-2{opacity:0.07;}.cls-3{fill:#fff;}</style></defs><title>Cloud_NAT_Hex 512px</title><g id="BASE"><path class="cls-1" d="M505.9,232.48l-105.22-183C392.24,34.91,377,26,361.22,26H150.79c-16.86,0-31.59,9.88-39.46,23.5L6.11,232.1a45.9,45.9,0,0,0,0,45.75l105.22,183.8C119.75,476.26,135,486,150.78,486H361.21c16.86,0,31.59-10.63,39.46-24.24l105.22-183A46.94,46.94,0,0,0,505.9,232.48Z"/></g><g id="shadow"><path class="cls-2" d="M377.28,256l-30.37.58L243.29,153l9.84,26.14L272.66,234l-47.74-47.73,2.72,15.18-23-23.05-25.86,4.38-5.79,27.29,42.26,42.26L191.75,259l-18.83-18.82-26.38,6.08-5.26,25.6L178,308.51l-5,25.05L325.41,486h35.8c16.86,0,31.59-10.63,39.46-24.24L467.25,346Z"/></g><g id="art"><path class="cls-3" d="M157.12,233.6a22.4,22.4,0,1,0,22.4,22.4A22.43,22.43,0,0,0,157.12,233.6Zm0,28.81a6.41,6.41,0,1,1,6.42-6.41A6.41,6.41,0,0,1,157.12,262.41Z"/><path class="cls-3" d="M188.79,295.32a22.4,22.4,0,1,0,22.4,22.4A22.43,22.43,0,0,0,188.79,295.32Zm0,28.82a6.42,6.42,0,1,1,6.41-6.42A6.42,6.42,0,0,1,188.79,324.14Z"/><path class="cls-3" d="M188.79,171.88a22.4,22.4,0,1,0,22.4,22.4A22.43,22.43,0,0,0,188.79,171.88Zm0,28.81a6.42,6.42,0,1,1,6.41-6.41A6.42,6.42,0,0,1,188.79,200.69Z"/><polygon class="cls-3" points="338.27 285.26 338.27 226.74 377.28 256 338.27 285.26"/><path class="cls-3" d="M302.56,248c.14,2.65.21,5.32.21,8s-.07,5.34-.21,8h37V248Z"/><path class="cls-3" d="M250.79,256c0-2.69-.11-5.35-.3-8h-79v16h79C250.68,261.35,250.79,258.69,250.79,256Z"/><path class="cls-3" d="M229.3,320.12a119.72,119.72,0,0,0,6.83-10.39H203.2v16h21.72C226.37,324,227.84,322.11,229.3,320.12Z"/><path class="cls-3" d="M227,139l-11.24,16.52c.51.35,51,35.45,51,100.51s-50.49,100.16-51,100.51L227,373c2.44-1.66,59.74-41.51,59.74-117S229.47,140.63,227,139Z"/><path class="cls-3" d="M229.3,191.88c-1.46-2-2.93-3.85-4.38-5.59H203.2v16h32.93A119.72,119.72,0,0,0,229.3,191.88Z"/></g></svg>