<svg xmlns="http://www.w3.org/2000/svg" viewBox="0 0 510.24 458.44"><defs><style>.cls-1{fill:#4285f4;}.cls-2{opacity:0.07;}.cls-3{fill:#fff;}</style></defs><title>Asset 1</title><g id="Layer_2" data-name="Layer 2"><g id="Art"><path class="cls-1" d="M504.16,205.77,399.3,23.43C390.9,8.88,375.66,0,360,0H150.27C133.47,0,118.8,9.85,111,23.42L6.09,205.4a45.75,45.75,0,0,0,0,45.59L110.94,434.16c8.4,14.55,23.64,24.26,39.32,24.26H360c16.81,0,31.48-10.59,39.33-24.16L504.15,251.91A46.76,46.76,0,0,0,504.16,205.77Z"/><path class="cls-2" d="M379.83,228.74l-151.42-148-10.06,23.63L200.5,128.53l26.58,23.83-1.82,73.1-61.9-61.06-47.73,27.87L224.9,302.2,217.53,314l141,144.46,3.9-.12c16.6-.76,30.53-12.11,38.33-26.6l65.9-114.56Z"/><rect class="cls-3" x="217.42" y="104.56" width="22" height="209.43"/><path class="cls-3" d="M239.42,314h-22V276a75.21,75.21,0,0,0-75.12-75.12v-22A97.23,97.23,0,0,1,239.42,276Z"/><polygon class="cls-3" points="228.42 80.64 200.52 128.48 256.33 128.48 228.42 80.64"/><polygon class="cls-3" points="115.6 192.26 163.44 220.16 163.44 164.36 115.6 192.26"/><rect class="cls-3" x="270.82" y="144.42" width="22" height="209.43"/><path class="cls-3" d="M367.94,279.5a97.23,97.23,0,0,1-97.12-97.12v-38h22v38a75.21,75.21,0,0,0,75.12,75.12Z"/><polygon class="cls-3" points="394.64 268 346.81 240.09 346.81 295.9 394.64 268"/><polygon class="cls-3" points="281.82 377.78 309.73 329.94 253.92 329.94 281.82 377.78"/></g></g></svg>